<svg xmlns="http://www.w3.org/2000/svg" viewBox="0 0 40 40">
  <rect width="40" height="40" rx="8" fill="#DBEAFE"/>
  <svg x="7" y="7" width="26" height="26" viewBox="0 0 24 24" fill="none" stroke="#3B82F6" stroke-width="2">
    <path d="M14.752 11.168l-3.197-2.132A1 1 0 0010 9.87v4.263a1 1 0 001.555.832l3.197-2.132a1 1 0 000-1.664z" stroke-linecap="round" stroke-linejoin="round"/>
    <path d="M21 12a9 9 0 11-18 0 9 9 0 0118 0z" stroke-linecap="round" stroke-linejoin="round"/>
  </svg>
  <circle cx="33" cy="33" r="6" fill="white"/>
  <svg x="27.5" y="27.5" width="11" height="11" viewBox="0 0 24 24" fill="none" stroke="#2563EB" stroke-width="2.5">
    <path d="M4 16v1a3 3 0 003 3h10a3 3 0 003-3v-1m-4-4l-4 4m0 0l-4-4m4 4V4" stroke-linecap="round" stroke-linejoin="round"/>
  </svg>
</svg>
